<?xml version="1.0" encoding="UTF-8"?>
<svg id="plate" xmlns="http://www.w3.org/2000/svg" version="1.1" viewBox="0 0 1920 1080">
  <defs>
    <style>
      .cls-1 {
        fill: #000;
      }

      .cls-1, .cls-2, .cls-3 {
        stroke-width: 0px;
      }

      .cls-2 {
        fill: #18157c;
      }

      .cls-3 {
        fill: #caebef;
      }
    </style>
  </defs>
  <g>
    <rect class="cls-3" x=".5" y=".5" width="1919" height="1079"/>
    <path class="cls-1" d="M1919,1v1078H1V1h1918M1920,0H0v1080h1920V0h0Z"/>
  </g>
  <g>
    <path class="cls-2" d="M960,919.5c-54.34,0-107.06-10.04-156.68-29.83-47.93-19.12-90.98-46.48-127.94-81.34-36.96-34.85-65.98-75.44-86.25-120.63-20.99-46.78-31.63-96.48-31.63-147.71s10.64-100.92,31.63-147.71c20.27-45.19,49.29-85.77,86.25-120.63,36.96-34.85,80.01-62.22,127.94-81.34,49.62-19.79,102.34-29.83,156.68-29.83s107.06,10.04,156.68,29.83c47.93,19.12,90.98,46.48,127.94,81.34,36.96,34.85,65.98,75.44,86.25,120.63,20.99,46.78,31.63,96.48,31.63,147.71s-10.64,100.92-31.63,147.71c-20.27,45.19-49.29,85.77-86.25,120.63-36.96,34.86-80.01,62.22-127.94,81.34-49.62,19.79-102.34,29.83-156.68,29.83Z"/>
    <path class="cls-1" d="M960,161c54.28,0,106.93,10.02,156.5,29.79,47.87,19.09,90.86,46.42,127.78,81.24,36.91,34.81,65.9,75.34,86.14,120.47,20.96,46.72,31.58,96.35,31.58,147.5s-10.63,100.79-31.58,147.5c-20.24,45.13-49.23,85.66-86.14,120.47-36.92,34.81-79.91,62.14-127.78,81.24-49.57,19.77-102.22,29.79-156.5,29.79s-106.93-10.02-156.5-29.79c-47.87-19.09-90.86-46.42-127.78-81.24-36.91-34.81-65.9-75.34-86.14-120.47-20.96-46.72-31.58-96.35-31.58-147.5s10.63-100.79,31.58-147.5c20.24-45.13,49.23-85.66,86.14-120.47,36.92-34.81,79.91-62.14,127.78-81.24,49.57-19.77,102.22-29.79,156.5-29.79M960,160c-222.57,0-403,170.13-403,380s180.43,380,403,380,403-170.13,403-380-180.43-380-403-380h0Z"/>
  </g>
</svg>